<?xml version="1.0" standalone="no"?>
<!DOCTYPE svg PUBLIC "-//W3C//DTD SVG 20010904//EN"
 "http://www.w3.org/TR/2001/REC-SVG-20010904/DTD/svg10.dtd">
<svg version="1.0" xmlns="http://www.w3.org/2000/svg"
 width="260.000000pt" height="260.000000pt" viewBox="0 0 260.000000 260.000000"
 preserveAspectRatio="xMidYMid meet">
<metadata>
Created by potrace 1.11, written by Peter Selinger 2001-2013
</metadata>
<g transform="translate(0.000000,260.000000) scale(0.100000,-0.100000)"
fill="#000000" stroke="none">
<path d="M1173 2428 c-33 -9 -133 -101 -133 -123 0 -7 -4 -15 -8 -17 -5 -1
-27 -34 -50 -72 -89 -150 -163 -214 -267 -231 -22 -4 -119 -8 -215 -9 -248 -4
-311 -29 -370 -151 -22 -43 -25 -63 -24 -145 1 -78 9 -127 46 -275 67 -263 63
-253 217 -549 28 -55 65 -145 82 -200 62 -204 93 -281 125 -313 7 -8 19 -22
26 -31 21 -29 74 -62 120 -75 69 -21 137 -16 323 23 94 20 205 27 250 16 74
-17 110 -28 184 -55 242 -86 358 -72 423 52 20 38 22 54 20 177 -7 357 -6 362
63 439 46 50 88 74 255 146 207 89 260 139 260 244 0 120 -72 190 -345 336
-38 21 -99 59 -136 85 -65 47 -202 130 -214 130 -11 0 -129 82 -163 114 -47
43 -79 92 -151 231 -35 66 -79 141 -98 166 -59 77 -139 109 -220 87z"/>
</g>
</svg>
